<?xml version="1.0" encoding="UTF-8"?><svg id="Layer_2" xmlns="http://www.w3.org/2000/svg" viewBox="0 0 1556.94 458.56"><defs><style>.cls-1{fill:#42ef90;}.cls-2{fill:#ebecf0;}.cls-3{fill:#121212;}</style></defs><g id="Layer_1-2"><g><path class="cls-1" d="M300.32,182.11c-33.81,29.81-81.79,33.44-112.69,29.81,30.9,20.72-1.45,81.06-47.26,98.51-49.07,18.9-79.61-14.18-29.81-114.87,41.8-84.33,111.23-142.5,147.22-122.87,32.72,17.81-30.9,98.51-75.61,79.61,15.27,50.16,77.43,37.44,108.33,.36,36.35-43.62,31.26-91.97-8-106.51-33.81-12.72-148.31-3.64-231.92,138.13-87.97,149.04-21.08,183.21,22.9,179.94,38.53-2.91,78.15-23.63,103.24-50.53-23.26,99.6-65.43,100.33-70.88,91.24-5.45-9.45,12.36-23.99,38.9-21.45-14.54-9.81-45.44-11.63-66.52,3.27-56.34,39.26,2.54,103.24,76.7,53.8,73.07-48.71,79.97-195.93,145.4-258.46Z"/><path class="cls-1" d="M777.98,249c-18.9,37.8-41.44,67.61-54.89,67.61-15.27,0-17.45-28.35-15.63-58.53,66.16-32.35,86.52-114.51,48.71-119.96-27.63-4-59.62,30.9-86.88,77.43,26.9-69.79,63.25-144.68,85.42-174.12-27.99,14.54-54.16,15.27-77.06,7.63,3.19,42.57-31.12,126.78-64.9,201.01-18.96,37.3-50.21,66.9-74.69,66.9-21.08,0-31.26-17.08-22.17-57.07,9.09-39.99,46.17-98.88,63.98-87.24,17.81,11.63-13.09,51.25-35.26,65.43,79.25-9.45,81.79-99.97,33.08-99.97-37.08,0-82.15,43.98-106.51,104.69-1.39,3.39-2.66,6.76-3.83,10.11-18.78,36.06-44.54,65.86-55.06,65.86s-10.18-15.99-4-35.62c6.18-19.63,34.53-116.32,64.71-145.04-18.18,6.54-49.8,10.54-72.7,4.73,.73,24.72-12.36,62.16-27.63,98.87-18.9,35.99-45.8,74.88-55.98,74.88s-5.82-13.81,.36-33.44c6.18-19.63,43.62-110.14,67.25-145.04-19.63,7.27-48.35,8.72-67.98,3.27-1.09,30.17-23.26,79.25-41.44,122.5-18.17,43.26-34.9,98.51,7.27,98.51,23.63,0,48.35-27.63,68.7-58.89-6.91,31.26-2.91,58.89,26.9,58.89s58.99-36.1,81.02-71.37c-3.76,40.97,13.02,71.37,49.48,71.37,26.67,0,51.32-18.64,71.78-42.2-7.46,15.81-14.04,29.82-19.07,41.11,20.72-11.63,51.25-13.81,75.61-6.18-3.27-8.36-2.18-24.35,2.54-45.08l.36-.36c17.45-64.34,57.8-122.5,74.16-126.87,13.45-3.63,2.54,40.71-47.26,77.43-11.27,38.17-19.63,102.15,22.54,102.15s82.15-73.79,102.15-113.42h-13.09Z"/></g><g><g><path class="cls-2" d="M101.66,441.06c-23.33,0-42.74-11.9-48.3-29.6-5.32-16.94,3.04-35.09,22.36-48.56,10.52-7.44,24.31-11.54,38.79-11.54,12.38,0,23.93,3,31.69,8.24l.25,.17c9.2-13.78,17.02-32.47,23.34-55.8-26.54,24.1-62.48,40.19-96.53,42.76-1.95,.14-3.93,.22-5.9,.22-11.7,0-40.53-2.82-55.46-28.97-8.53-14.94-10.58-34.59-6.1-58.4,5.15-27.4,19.04-60.39,41.27-98.06,30.37-51.49,67.36-90.24,109.94-115.17,42.83-25.07,79.05-28.82,96.84-28.82,11.49,0,21.92,1.55,29.39,4.36,16.79,6.22,28.46,18.74,32.87,35.26,6.25,23.43-2.29,51.41-23.42,76.77-17.19,20.63-43.54,33.96-67.14,33.96s-40.35-12.95-47.22-35.54l-2.18-7.16,6.89,2.91c4.04,1.71,8.42,2.57,13.01,2.57h0c27.3,0,59.49-31.08,65.73-55.57,1.73-6.79,2.06-15.83-6.17-20.31-4.14-2.26-8.91-3.4-14.18-3.4-37.23,0-93.56,54.8-128.23,124.75-32.52,65.74-26.44,93.16-19.92,103.65,4.63,7.45,12.24,11.23,22.61,11.23,6.76,0,14.41-1.63,22.73-4.83,28.45-10.84,53.99-40.68,56.93-66.53,.91-8-.15-18.96-10.36-25.81l-12.04-8.08,14.4,1.69c6.39,.75,13.05,1.13,19.79,1.13,20.93,0,60.49-3.91,90.18-30.09l4.73,5.16c-29.97,28.64-47.88,76.61-65.2,123.01-20.05,53.7-40.78,109.23-80.68,135.83-18.23,12.15-37.14,18.58-54.7,18.58h0Zm36.5-75.35c-14.88,0-26.04,5.84-29.37,11.61-1.07,1.86-1.21,3.5-.41,4.88,.44,.72,2.36,1.88,5.75,1.88,3.96,0,14.54-1.69,27.18-17.29,.25-.31,.51-.63,.76-.95-1.31-.09-2.62-.13-3.9-.13Z"/><path class="cls-3" d="M253.86,21.03c11.9,0,21.56,1.65,28.16,4.13,39.26,14.54,44.35,62.89,8,106.51-16.53,19.83-42,32.7-64.45,32.7-19.52,0-36.77-9.73-43.87-33.06,4.64,1.96,9.47,2.85,14.38,2.85,42.48,0,90.55-66.49,61.23-82.46-4.75-2.59-10.08-3.83-15.85-3.83-37.98,0-95.08,53.49-131.37,126.69-40.98,82.86-27.57,119.93,5.82,119.93,7.18,0,15.3-1.72,23.99-5.06,45.8-17.45,78.15-77.79,47.26-98.51,6.14,.72,12.95,1.16,20.19,1.16,29.21,0,65.41-7.08,92.49-30.97-65.43,62.52-72.34,209.75-145.4,258.46-19.19,12.79-37.35,17.99-52.76,17.99-44.15,0-65.71-42.69-23.94-71.79,10.85-7.67,24.31-10.91,36.79-10.91,11.77,0,22.68,2.88,29.73,7.64-2.08-.2-4.11-.29-6.08-.29-23.11,0-37.84,13.03-32.82,21.74,1.24,2.07,4.39,3.63,8.78,3.63,14.9,0,44.14-17.95,62.1-94.87-25.08,26.9-64.7,47.62-103.24,50.53-1.84,.14-3.72,.21-5.63,.21-43.68,0-101.55-37.36-17.27-180.15C117.4,49.17,204.72,21.03,253.86,21.03m0-7h0c-18.14,0-55.06,3.81-98.6,29.3-43.11,25.23-80.51,64.4-111.19,116.41C21.63,197.75,7.6,231.13,2.37,258.92c-4.64,24.65-2.45,45.11,6.5,60.78,6.05,10.6,14.96,18.67,26.47,24,9.52,4.41,20.59,6.73,32.03,6.73,2.05,0,4.12-.08,6.15-.23,19.44-1.47,39.93-7.34,59.27-16.98,10.88-5.43,21.13-11.9,30.4-19.15-5.12,16.3-11.13,30.1-17.82,40.9-8.15-4.55-19.18-7.12-30.84-7.12-15.2,0-29.71,4.33-40.83,12.2-20.6,14.35-29.46,33.97-23.66,52.45,2.9,9.25,9.49,17.48,18.55,23.17,9.24,5.81,20.68,8.88,33.09,8.88,18.25,0,37.83-6.63,56.64-19.16,18.47-12.31,34.5-31.62,48.99-59.03,12.65-23.91,23.01-51.66,33.02-78.48,17.18-46.03,34.95-93.62,64.34-121.7l-9.47-10.31c-28.83,25.42-67.42,29.22-87.86,29.22-6.6,0-13.12-.37-19.38-1.11l-28.81-3.39,24.09,16.15c7.03,4.71,10,12.29,8.84,22.51-1.28,11.23-7.61,24.41-17.38,36.16-10.4,12.52-23.65,22.28-37.3,27.48-7.94,3.06-15.17,4.61-21.49,4.61-9.08,0-15.69-3.22-19.64-9.58-4.94-7.95-12.86-33.63,20.09-100.25,17.03-34.35,39.62-65.9,63.61-88.84,22.57-21.58,44.98-33.95,61.48-33.95,4.68,0,8.89,1,12.5,2.97,1.88,1.02,7.58,4.13,4.46,16.38-2.82,11.09-11.87,24.51-23.6,35.03-12.69,11.38-26.81,17.9-38.73,17.9-4.13,0-8.06-.77-11.66-2.3l-13.78-5.82,4.36,14.31c7.35,24.16,25.79,38.02,50.57,38.02s52-13.82,69.83-35.22c10.95-13.13,18.6-26.92,22.77-40.98,4.04-13.63,4.5-27.1,1.34-38.93-4.71-17.65-17.16-31.01-35.05-37.64-7.93-2.98-18.52-4.57-30.59-4.57h0ZM111.39,380.13c.05-.33,.28-.79,.44-1.07,2.01-3.48,9.77-8.83,22.56-9.73-10.04,10.34-17.88,11.24-20.26,11.24-1.44,0-2.31-.26-2.74-.44h0Z"/></g><g><path class="cls-2" d="M557.27,338.9c2.92-6.54,6.35-14.01,10.07-21.97-20.05,18.59-40.03,27.99-59.59,27.99-15.49,0-28.56-5.36-37.8-15.49-9.96-10.92-15.37-27.23-15.68-46.74-27.64,41.31-53.52,62.23-77.02,62.23-11.15,0-19.7-3.6-25.4-10.7-7.58-9.43-8.72-23.5-7.45-36.79-22.73,31.53-43.8,47.49-62.75,47.49-11.4,0-19.69-3.79-24.65-11.25-10.12-15.23-5.49-45.36,14.16-92.12,1.91-4.54,3.86-9.15,5.83-13.79,16.91-39.88,34.39-81.12,35.34-107.48l.16-4.43,4.27,1.19c7.47,2.07,16.59,3.17,26.38,3.17,14.16,0,28.54-2.32,39.44-6.35l10.23-3.79-6.12,9.03c-22.99,33.95-60.54,124.22-66.81,144.13l-.62,1.97c-3.46,10.97-7.38,23.39-5.25,26.3,.3,.41,1.03,.62,2.17,.62,.22,0,5.68-.26,21.89-22.51,10.15-13.93,21.41-32.28,30.92-50.37,12.11-29.14,28.08-70.85,27.3-97.28l-.14-4.64,4.5,1.14c7.07,1.8,15.34,2.71,24.56,2.71,15.87,0,33.53-2.81,46.1-7.33l15.63-5.63-12.04,11.46c-27.48,26.15-53.63,110.76-62.23,138.57-.61,1.98-1.13,3.66-1.55,4.99-5.37,17.05-4.81,26.49-2.5,29.64,.49,.67,1.29,1.44,3.17,1.44,7.41,0,31.84-25.42,51.84-63.76,1.19-3.4,2.47-6.78,3.81-10.05,24.84-61.91,71-106.86,109.75-106.86,20.1,0,34.48,14.79,35.79,36.8,.91,15.23-4.68,31.15-15.31,43.66-8.69,10.23-24.96,23.12-53.14,26.48l-15.18,1.81,12.88-8.23c17.48-11.17,38.88-37.35,38.96-51.97,.02-3.5-1.17-5.91-3.72-7.58-.95-.62-1.99-.92-3.16-.92-15.79,0-46.9,48.23-55.49,86.01-4.99,21.94-4.18,37.85,2.32,46,3.6,4.51,9.13,6.8,16.44,6.8,22.32,0,52.39-27.3,71.54-64.92,29.31-64.42,67.86-155.12,64.56-199.23l-.39-5.25,4.99,1.66c9.2,3.07,18.66,4.62,28.11,4.62,15.3,0,30.85-4.05,46.23-12.04l13.69-7.11-9.28,12.32c-18.25,24.24-46.65,80.16-71.71,140.28,18.19-24.92,42.18-49.5,66-49.5,1.64,0,3.28,.12,4.88,.35,11.7,1.69,19.27,9.83,21.33,22.91,2.36,15.05-3.08,35.25-14.55,54.03-12.55,20.55-31.18,37.78-52.61,48.7-1.83,33.65,2.66,45.97,6.8,50.37,1.56,1.66,3.3,2.44,5.45,2.44,9.4,0,30.2-22.56,51.76-65.68l.97-1.93h20.94l-2.56,5.08c-39.16,77.61-73.6,115.34-105.27,115.34-11.1,0-19.77-4.07-25.77-12.09-18.65-24.95-4.81-78.68-.13-94.55l.33-1.13,.95-.7c34.73-25.61,49.74-54.82,51.04-67.21,.26-2.47-.09-3.71-.3-4.1-.13,0-.28,.03-.5,.08-14.01,3.74-53.91,58.84-71.69,124.4l-.24,.9-.31,.31c-4.45,19.85-5.33,34.75-2.48,42.04l2.66,6.8-6.97-2.18c-9-2.82-19.19-4.31-29.46-4.31-16.26,0-31.67,3.62-43.39,10.21l-9.21,5.17,4.3-9.65Z"/><path class="cls-3" d="M754.22,20.43c-22.17,29.44-58.52,104.33-85.42,174.12,25.84-44.1,55.91-77.74,82.5-77.74,1.47,0,2.93,.1,4.37,.31,37.81,5.45,17.45,87.61-48.71,119.96-1.82,30.17,.36,58.53,15.63,58.53,13.45,0,35.99-29.81,54.89-67.61h13.09c-19.99,39.62-60.34,113.41-102.15,113.41s-33.81-63.98-22.54-102.15c47.87-35.29,59.81-77.64,48.71-77.64-.45,0-.93,.07-1.45,.21-16.36,4.36-56.71,62.52-74.16,126.87l-.36,.36c-4.73,20.72-5.82,36.71-2.54,45.08-9.54-2.99-20.03-4.47-30.51-4.47-16.27,0-32.5,3.58-45.1,10.65,5.03-11.3,11.61-25.3,19.07-41.11-20.46,23.57-45.11,42.2-71.78,42.2-36.46,0-53.24-30.4-49.48-71.37-22.03,35.26-51.52,71.37-81.02,71.37s-33.81-27.63-26.9-58.89c-20.36,31.26-45.08,58.89-68.7,58.89-42.17,0-25.45-55.25-7.27-98.51,18.18-43.26,40.35-92.33,41.44-122.5,8.01,2.22,17.52,3.3,27.32,3.3,14.22,0,29.03-2.27,40.66-6.57-23.63,34.9-61.07,125.41-67.25,145.04-6.18,19.63-10.91,33.44-.36,33.44s37.08-38.9,55.98-74.88c15.27-36.71,28.35-74.16,27.63-98.87,7.76,1.97,16.52,2.81,25.42,2.81,17.37,0,35.27-3.21,47.28-7.54-30.17,28.72-58.53,125.41-64.71,145.04-6.18,19.63-6.54,35.62,4,35.62s36.28-29.8,55.06-65.86c1.17-3.35,2.44-6.72,3.83-10.11,24.35-60.71,69.43-104.69,106.51-104.69,48.71,0,46.17,90.51-33.08,99.97,22.17-14.18,53.07-53.8,35.26-65.43-1.56-1.02-3.26-1.49-5.07-1.49-19,0-50.61,52.24-58.9,88.74-9.09,39.99,1.09,57.07,22.17,57.07,24.48,0,55.73-29.6,74.69-66.9,33.77-74.23,68.08-158.43,64.9-201.01,9.24,3.08,19.01,4.8,29.22,4.8,15.09,0,31.15-3.76,47.84-12.43M778.37,0l-27.38,14.22c-14.87,7.73-29.89,11.64-44.62,11.64-9.08,0-18.17-1.49-27.01-4.44l-9.98-3.33,.79,10.49c1.37,18.25-4.76,47.13-18.22,85.81-10.45,30.03-25.49,66.55-46,111.63-18.28,35.89-47.67,62.94-68.39,62.94-6.28,0-10.76-1.79-13.7-5.48-4.06-5.08-7.64-16.68-1.65-43.04,1.01-4.47,2.42-9.25,4.15-14.2l18.57-2.22c29.3-3.5,46.3-16.99,55.39-27.69,11.22-13.2,17.1-30.01,16.14-46.14-1.42-23.98-17.21-40.09-39.28-40.09-19.81,0-42.16,11.22-62.93,31.58-20.18,19.79-37.96,47.31-50.07,77.48-1.33,3.24-2.6,6.59-3.78,9.95-8.44,16.15-18.69,31.73-28.87,43.94-11.59,13.89-18.19,17.48-19.81,17.72-.14,0-.24-.01-.3-.02-.89-1.13-2.69-8.29,3.04-26.5,.42-1.33,.94-3.02,1.56-5.01,4.19-13.55,12.91-41.75,24.02-69.74,13.29-33.48,26.18-56.76,37.28-67.32l24.07-22.91-31.27,11.26c-12.21,4.4-29.42,7.13-44.91,7.13-8.93,0-16.91-.87-23.7-2.6l-6.71-1.71,7.03-10.38-20.46,7.58c-10.53,3.9-24.46,6.13-38.22,6.13-9.48,0-18.28-1.05-25.45-3.04l-8.55-2.37-.32,8.87c-.93,25.71-19.06,68.5-35.06,106.24-1.97,4.65-3.92,9.26-5.83,13.8-20.41,48.59-24.81,78.9-13.85,95.41,5.65,8.5,14.93,12.81,27.57,12.81,18.17,0,37.91-13.43,58.84-39.99,.32,11.76,3.21,21.23,8.63,27.98,6.4,7.97,15.87,12.01,28.13,12.01,15.3,0,31.51-8.22,48.19-24.44,8.45-8.22,17.15-18.6,25.98-31,1.79,15.88,7.22,29.25,15.95,38.81,9.93,10.88,23.89,16.63,40.39,16.63s33.16-6.3,49.86-18.79c-1.25,2.73-2.43,5.36-3.54,7.85l-8.6,19.29,18.42-10.34c11.21-6.29,26.01-9.76,41.68-9.76,9.92,0,19.74,1.44,28.41,4.15l13.93,4.37-5.32-13.6c-1.2-3.08-3.32-12.96,2.41-39.01l.24-.25,.49-1.8c1.79-6.62,3.79-13.01,5.9-19.13-3.19,21.85-3.51,47.83,8.21,63.51,6.6,8.83,16.48,13.5,28.57,13.5,11.32,0,23.09-4.56,35.01-13.56,9.66-7.3,19.7-17.75,29.82-31.04,18.39-24.15,33.67-53.03,43.57-72.65l5.12-10.15h-28.79l-1.93,3.87c-9.25,18.49-19.44,35.1-28.71,46.76-13.12,16.51-19.26,16.99-19.92,16.99-1.17,0-2.01-.39-2.9-1.33-2.38-2.53-7.57-11.99-5.96-45.78,21.24-11.25,39.67-28.54,52.21-49.06,11.89-19.47,17.51-40.55,15.02-56.4-2.28-14.52-11.13-23.94-24.29-25.84-1.76-.25-3.57-.38-5.37-.38-18.35,0-36.44,12.97-52.62,30.74,22.16-50.31,45.73-95.46,61.13-115.91L778.37,0h0ZM316.92,287.99c.25-4.53,3.34-14.31,5.68-21.75l.62-1.97c6.23-19.79,43.54-109.51,66.37-143.22l3.04-4.49,.16,5.5c.76,25.72-14.99,66.86-26.97,95.69-8.94,16.98-19.58,34.44-29.24,47.93-11.21,15.67-17.27,20.73-19.66,22.3h0Zm212.48-69.8c4.59-11.37,10.62-23.13,17.31-33.55,12.12-18.87,22.79-27.46,27.58-27.46,.5,0,.86,.1,1.25,.35,1.12,.73,2.15,1.8,2.14,4.63-.03,5.91-4.62,15.34-12.28,25.23-7.38,9.52-16.98,18.65-25.06,23.81l-10.93,6.99h0Zm141.83,7.96c4.23-8.09,8.14-14.75,11.19-19.68,12.47-20.16,22.72-31.29,28.67-35.71-.86,4.23-3.34,11.19-8.82,20.15-5.51,9-15.14,21.84-31.04,35.24h0Z"/></g></g><g><path class="cls-1" d="M1055.32,182.11c-33.81,29.81-81.79,33.44-112.69,29.81,30.9,20.72-1.45,81.06-47.26,98.51-49.07,18.9-79.61-14.18-29.81-114.87,41.8-84.33,111.23-142.5,147.22-122.87,32.72,17.81-30.9,98.51-75.61,79.61,15.27,50.16,77.43,37.44,108.33,.36,36.35-43.62,31.26-91.97-8-106.51-33.81-12.72-148.31-3.64-231.92,138.13-87.97,149.04-21.08,183.21,22.9,179.94,38.53-2.91,78.15-23.63,103.24-50.53-23.26,99.6-65.43,100.33-70.88,91.24-5.45-9.45,12.36-23.99,38.9-21.45-14.54-9.81-45.44-11.63-66.52,3.27-56.34,39.26,2.54,103.24,76.7,53.8,73.07-48.71,79.97-195.93,145.4-258.46Z"/><path class="cls-1" d="M1532.98,249c-18.9,37.8-41.44,67.61-54.89,67.61-15.27,0-17.45-28.35-15.63-58.53,66.16-32.35,86.52-114.51,48.71-119.96-27.63-4-59.62,30.9-86.88,77.43,26.9-69.79,63.25-144.68,85.42-174.12-27.99,14.54-54.16,15.27-77.06,7.63,3.19,42.57-31.12,126.78-64.9,201.01-18.96,37.3-50.21,66.9-74.69,66.9-21.08,0-31.26-17.08-22.17-57.07,9.09-39.99,46.17-98.88,63.98-87.24,17.81,11.63-13.09,51.25-35.26,65.43,79.25-9.45,81.79-99.97,33.08-99.97-37.08,0-82.15,43.98-106.51,104.69-1.39,3.39-2.66,6.76-3.83,10.11-18.78,36.06-44.54,65.86-55.06,65.86s-10.18-15.99-4-35.62c6.18-19.63,34.53-116.32,64.71-145.04-18.18,6.54-49.8,10.54-72.7,4.73,.73,24.72-12.36,62.16-27.63,98.87-18.9,35.99-45.8,74.88-55.98,74.88s-5.82-13.81,.36-33.44c6.18-19.63,43.62-110.14,67.25-145.04-19.63,7.27-48.35,8.72-67.98,3.27-1.09,30.17-23.26,79.25-41.44,122.5-18.17,43.26-34.9,98.51,7.27,98.51,23.63,0,48.35-27.63,68.7-58.89-6.91,31.26-2.91,58.89,26.9,58.89s58.99-36.1,81.02-71.37c-3.76,40.97,13.02,71.37,49.48,71.37,26.67,0,51.32-18.64,71.78-42.2-7.46,15.81-14.04,29.82-19.07,41.11,20.72-11.63,51.25-13.81,75.61-6.18-3.27-8.36-2.18-24.35,2.54-45.08l.36-.36c17.45-64.34,57.8-122.5,74.16-126.87,13.45-3.63,2.54,40.71-47.26,77.43-11.27,38.17-19.63,102.15,22.54,102.15s82.15-73.79,102.15-113.42h-13.09Z"/></g><g><g><path class="cls-2" d="M856.66,441.06c-23.33,0-42.74-11.9-48.3-29.6-5.32-16.94,3.04-35.09,22.36-48.56,10.52-7.44,24.31-11.54,38.79-11.54,12.38,0,23.93,3,31.69,8.24l.25,.17c9.2-13.78,17.02-32.47,23.34-55.8-26.54,24.1-62.48,40.19-96.53,42.76-1.95,.14-3.93,.22-5.9,.22-11.7,0-40.53-2.82-55.46-28.97-8.53-14.94-10.58-34.59-6.1-58.4,5.15-27.4,19.04-60.39,41.27-98.06,30.37-51.49,67.36-90.24,109.94-115.17,42.83-25.07,79.05-28.82,96.84-28.82,11.49,0,21.92,1.55,29.39,4.36,16.79,6.22,28.46,18.74,32.87,35.26,6.25,23.43-2.29,51.41-23.42,76.77-17.19,20.63-43.54,33.96-67.14,33.96s-40.35-12.95-47.22-35.54l-2.18-7.16,6.89,2.91c4.04,1.71,8.42,2.57,13.01,2.57h0c27.3,0,59.49-31.08,65.73-55.57,1.73-6.79,2.06-15.83-6.17-20.31-4.14-2.26-8.91-3.4-14.18-3.4-37.23,0-93.56,54.8-128.23,124.75-32.52,65.74-26.44,93.16-19.92,103.65,4.63,7.45,12.24,11.23,22.61,11.23,6.76,0,14.41-1.63,22.73-4.83,28.45-10.84,53.99-40.68,56.93-66.53,.91-8-.15-18.96-10.36-25.81l-12.04-8.08,14.4,1.69c6.39,.75,13.05,1.13,19.79,1.13,20.93,0,60.49-3.91,90.18-30.09l4.73,5.16c-29.97,28.64-47.88,76.61-65.2,123.01-20.05,53.7-40.78,109.23-80.68,135.83-18.23,12.15-37.14,18.58-54.7,18.58h0Zm36.5-75.35c-14.88,0-26.04,5.84-29.37,11.61-1.07,1.86-1.21,3.5-.41,4.88,.44,.72,2.36,1.88,5.75,1.88,3.96,0,14.54-1.69,27.18-17.29,.25-.31,.51-.63,.76-.95-1.31-.09-2.62-.13-3.9-.13Z"/><path class="cls-3" d="M1008.86,21.03c11.9,0,21.56,1.65,28.16,4.13,39.26,14.54,44.35,62.89,8,106.51-16.53,19.83-42,32.7-64.45,32.7-19.52,0-36.77-9.73-43.87-33.06,4.64,1.96,9.47,2.85,14.38,2.85,42.48,0,90.55-66.49,61.23-82.46-4.75-2.59-10.08-3.83-15.85-3.83-37.98,0-95.08,53.49-131.37,126.69-40.98,82.86-27.57,119.93,5.82,119.93,7.18,0,15.3-1.72,23.99-5.06,45.8-17.45,78.15-77.79,47.26-98.51,6.14,.72,12.95,1.16,20.19,1.16,29.21,0,65.41-7.08,92.49-30.97-65.43,62.52-72.34,209.75-145.4,258.46-19.19,12.79-37.35,17.99-52.76,17.99-44.15,0-65.71-42.69-23.94-71.79,10.85-7.67,24.31-10.91,36.79-10.91,11.77,0,22.68,2.88,29.73,7.64-2.08-.2-4.11-.29-6.08-.29-23.11,0-37.84,13.03-32.82,21.74,1.24,2.07,4.39,3.63,8.78,3.63,14.9,0,44.14-17.95,62.1-94.87-25.08,26.9-64.7,47.62-103.24,50.53-1.84,.14-3.72,.21-5.63,.21-43.68,0-101.55-37.36-17.27-180.15C872.4,49.17,959.72,21.03,1008.86,21.03m0-7h0c-18.14,0-55.06,3.81-98.6,29.3-43.1,25.23-80.51,64.4-111.19,116.41-22.44,38.02-36.47,71.39-41.7,99.19-4.64,24.65-2.45,45.11,6.5,60.78,6.05,10.6,14.96,18.67,26.47,24,9.52,4.41,20.59,6.73,32.03,6.73,2.05,0,4.12-.08,6.15-.23,19.44-1.47,39.93-7.34,59.27-16.98,10.88-5.43,21.13-11.9,30.4-19.15-5.12,16.3-11.13,30.1-17.82,40.9-8.15-4.55-19.18-7.12-30.84-7.12-15.2,0-29.71,4.33-40.83,12.2-20.6,14.35-29.46,33.97-23.66,52.45,2.9,9.25,9.49,17.48,18.55,23.17,9.24,5.81,20.68,8.88,33.09,8.88,18.25,0,37.83-6.63,56.64-19.16,18.47-12.31,34.5-31.62,48.99-59.03,12.65-23.91,23.01-51.66,33.02-78.48,17.18-46.03,34.95-93.62,64.34-121.7l-9.47-10.31c-28.83,25.42-67.42,29.22-87.86,29.22-6.6,0-13.12-.37-19.38-1.11l-28.81-3.39,24.09,16.15c7.03,4.71,10,12.29,8.84,22.51-1.28,11.23-7.61,24.41-17.38,36.16-10.4,12.52-23.65,22.28-37.3,27.48-7.94,3.06-15.17,4.61-21.49,4.61-9.08,0-15.69-3.22-19.64-9.58-4.94-7.95-12.86-33.63,20.09-100.25,17.03-34.35,39.62-65.9,63.61-88.84,22.57-21.58,44.98-33.95,61.48-33.95,4.68,0,8.89,1,12.5,2.97,1.88,1.02,7.58,4.13,4.46,16.38-2.82,11.09-11.87,24.51-23.6,35.03-12.69,11.38-26.81,17.9-38.73,17.9-4.13,0-8.06-.77-11.66-2.3l-13.78-5.82,4.36,14.31c7.35,24.16,25.79,38.02,50.57,38.02s52-13.82,69.83-35.22c10.95-13.13,18.6-26.92,22.77-40.98,4.04-13.63,4.5-27.1,1.34-38.93-4.71-17.65-17.16-31.01-35.05-37.64-7.93-2.98-18.52-4.57-30.59-4.57h0Zm-142.47,366.1c.05-.33,.28-.79,.44-1.07,2.01-3.48,9.77-8.83,22.56-9.73-10.04,10.34-17.88,11.24-20.26,11.24-1.44,0-2.31-.26-2.74-.44h0Z"/></g><g><path class="cls-2" d="M1312.27,338.9c2.92-6.54,6.35-14.01,10.07-21.97-20.05,18.59-40.03,27.99-59.59,27.99-15.49,0-28.56-5.36-37.8-15.49-9.96-10.92-15.37-27.23-15.68-46.74-27.64,41.31-53.52,62.23-77.02,62.23-11.15,0-19.7-3.6-25.4-10.7-7.58-9.43-8.72-23.5-7.45-36.79-22.73,31.53-43.8,47.49-62.75,47.49-11.4,0-19.69-3.79-24.65-11.25-10.12-15.23-5.49-45.36,14.16-92.12,1.91-4.54,3.86-9.15,5.83-13.79,16.91-39.88,34.39-81.12,35.34-107.48l.16-4.43,4.27,1.19c7.47,2.07,16.59,3.17,26.38,3.17,14.16,0,28.54-2.32,39.44-6.35l10.23-3.79-6.12,9.03c-22.99,33.95-60.54,124.22-66.81,144.13l-.62,1.97c-3.46,10.97-7.38,23.39-5.25,26.3,.3,.41,1.03,.62,2.17,.62,.22,0,5.68-.26,21.89-22.51,10.15-13.93,21.41-32.28,30.92-50.37,12.11-29.14,28.08-70.85,27.3-97.28l-.14-4.64,4.5,1.14c7.07,1.8,15.34,2.71,24.56,2.71,15.87,0,33.53-2.81,46.1-7.33l15.63-5.63-12.04,11.46c-27.48,26.15-53.63,110.76-62.23,138.57-.61,1.98-1.13,3.66-1.55,4.99-5.37,17.05-4.81,26.49-2.5,29.64,.49,.67,1.29,1.44,3.17,1.44,7.41,0,31.84-25.42,51.84-63.76,1.19-3.4,2.47-6.78,3.81-10.05,24.84-61.91,71-106.86,109.75-106.86,20.1,0,34.48,14.79,35.79,36.8,.91,15.23-4.68,31.15-15.31,43.66-8.69,10.23-24.96,23.12-53.14,26.48l-15.18,1.81,12.88-8.23c17.48-11.17,38.88-37.35,38.96-51.97,.02-3.5-1.17-5.91-3.72-7.58-.95-.62-1.99-.92-3.16-.92-15.79,0-46.9,48.23-55.49,86.01-4.99,21.94-4.18,37.85,2.32,46,3.6,4.51,9.13,6.8,16.44,6.8,22.32,0,52.39-27.3,71.54-64.92,29.31-64.42,67.86-155.12,64.56-199.23l-.39-5.25,4.99,1.66c9.2,3.07,18.66,4.62,28.11,4.62,15.3,0,30.85-4.05,46.23-12.04l13.69-7.11-9.28,12.32c-18.25,24.24-46.65,80.16-71.71,140.28,18.19-24.92,42.18-49.5,66-49.5,1.64,0,3.28,.12,4.88,.35,11.7,1.69,19.27,9.83,21.33,22.91,2.36,15.05-3.08,35.25-14.55,54.03-12.55,20.55-31.18,37.78-52.61,48.7-1.83,33.65,2.66,45.97,6.8,50.37,1.56,1.66,3.3,2.44,5.45,2.44,9.4,0,30.2-22.56,51.76-65.68l.97-1.93h20.94l-2.56,5.08c-39.16,77.61-73.6,115.34-105.27,115.34-11.1,0-19.77-4.07-25.77-12.09-18.65-24.95-4.81-78.68-.13-94.55l.33-1.13,.95-.7c34.73-25.61,49.74-54.82,51.04-67.21,.26-2.47-.09-3.71-.3-4.1-.13,0-.28,.03-.5,.08-14.01,3.74-53.91,58.84-71.69,124.4l-.24,.9-.31,.31c-4.45,19.85-5.33,34.75-2.48,42.04l2.66,6.8-6.97-2.18c-9-2.82-19.19-4.31-29.46-4.31-16.26,0-31.67,3.62-43.39,10.21l-9.21,5.17,4.3-9.65Z"/><path class="cls-3" d="M1509.22,20.43c-22.17,29.44-58.52,104.33-85.42,174.12,25.84-44.1,55.91-77.74,82.5-77.74,1.47,0,2.93,.1,4.37,.31,37.81,5.45,17.45,87.61-48.71,119.96-1.82,30.17,.36,58.53,15.63,58.53,13.45,0,35.99-29.81,54.89-67.61h13.09c-19.99,39.62-60.34,113.41-102.15,113.41s-33.81-63.98-22.54-102.15c47.87-35.29,59.81-77.64,48.71-77.64-.45,0-.93,.07-1.45,.21-16.36,4.36-56.71,62.52-74.16,126.87l-.36,.36c-4.73,20.72-5.82,36.71-2.54,45.08-9.54-2.99-20.03-4.47-30.51-4.47-16.26,0-32.5,3.58-45.1,10.65,5.03-11.3,11.61-25.3,19.07-41.11-20.46,23.57-45.11,42.2-71.78,42.2-36.46,0-53.24-30.4-49.48-71.37-22.03,35.26-51.52,71.37-81.02,71.37s-33.81-27.63-26.9-58.89c-20.36,31.26-45.08,58.89-68.7,58.89-42.17,0-25.45-55.25-7.27-98.51,18.18-43.26,40.35-92.33,41.44-122.5,8.01,2.22,17.52,3.3,27.32,3.3,14.22,0,29.03-2.27,40.66-6.57-23.63,34.9-61.07,125.41-67.25,145.04-6.18,19.63-10.91,33.44-.36,33.44s37.08-38.9,55.98-74.88c15.27-36.71,28.35-74.16,27.63-98.87,7.76,1.97,16.52,2.81,25.42,2.81,17.37,0,35.27-3.21,47.28-7.54-30.17,28.72-58.53,125.41-64.71,145.04-6.18,19.63-6.54,35.62,4,35.62s36.28-29.8,55.06-65.86c1.17-3.35,2.44-6.72,3.83-10.11,24.35-60.71,69.43-104.69,106.51-104.69,48.71,0,46.17,90.51-33.08,99.97,22.17-14.18,53.07-53.8,35.26-65.43-1.56-1.02-3.26-1.49-5.07-1.49-19,0-50.61,52.24-58.9,88.74-9.09,39.99,1.09,57.07,22.17,57.07,24.48,0,55.73-29.6,74.69-66.9,33.77-74.23,68.08-158.43,64.9-201.01,9.24,3.08,19.01,4.8,29.22,4.8,15.09,0,31.15-3.76,47.84-12.43m24.15-20.43l-27.38,14.22c-14.87,7.73-29.89,11.64-44.62,11.64-9.08,0-18.17-1.49-27.01-4.44l-9.98-3.33,.79,10.49c1.37,18.25-4.76,47.13-18.22,85.81-10.45,30.03-25.49,66.55-46,111.63-18.28,35.89-47.67,62.94-68.39,62.94-6.28,0-10.76-1.79-13.7-5.48-4.06-5.08-7.64-16.68-1.65-43.04,1.01-4.47,2.42-9.25,4.15-14.2l18.57-2.22c29.3-3.5,46.3-16.99,55.39-27.69,11.22-13.2,17.1-30.01,16.14-46.14-1.43-23.98-17.21-40.09-39.28-40.09-19.81,0-42.16,11.22-62.93,31.58-20.18,19.79-37.96,47.31-50.07,77.48-1.33,3.24-2.6,6.59-3.78,9.95-8.44,16.15-18.69,31.73-28.87,43.94-11.59,13.89-18.19,17.48-19.81,17.72-.14,0-.24-.01-.3-.02-.89-1.13-2.69-8.29,3.04-26.5,.42-1.33,.94-3.02,1.56-5.01,4.19-13.55,12.91-41.75,24.02-69.74,13.29-33.48,26.18-56.76,37.28-67.32l24.07-22.91-31.27,11.26c-12.21,4.4-29.42,7.13-44.91,7.13-8.93,0-16.91-.87-23.7-2.6l-6.71-1.71,7.03-10.38-20.46,7.58c-10.53,3.9-24.46,6.13-38.22,6.13-9.48,0-18.28-1.05-25.45-3.04l-8.55-2.37-.32,8.87c-.93,25.71-19.06,68.5-35.06,106.24-1.97,4.65-3.92,9.26-5.83,13.8-20.41,48.59-24.81,78.9-13.85,95.41,5.65,8.5,14.93,12.81,27.57,12.81,18.17,0,37.91-13.43,58.84-39.99,.32,11.76,3.21,21.23,8.63,27.98,6.4,7.97,15.87,12.01,28.13,12.01,15.3,0,31.51-8.22,48.19-24.44,8.45-8.22,17.15-18.6,25.98-31,1.79,15.88,7.22,29.25,15.95,38.81,9.93,10.88,23.89,16.63,40.39,16.63s33.16-6.3,49.86-18.79c-1.25,2.73-2.43,5.36-3.54,7.85l-8.6,19.29,18.42-10.34c11.21-6.29,26.01-9.76,41.68-9.76,9.92,0,19.74,1.44,28.41,4.15l13.93,4.37-5.32-13.6c-1.2-3.08-3.32-12.96,2.41-39.01l.25-.25,.49-1.8c1.79-6.62,3.79-13.01,5.9-19.13-3.19,21.85-3.51,47.83,8.21,63.51,6.6,8.83,16.48,13.5,28.57,13.5,11.32,0,23.09-4.56,35.01-13.56,9.66-7.3,19.7-17.75,29.82-31.04,18.39-24.15,33.67-53.03,43.57-72.65l5.12-10.15h-28.79l-1.93,3.87c-9.25,18.49-19.44,35.1-28.71,46.76-13.12,16.51-19.26,16.99-19.92,16.99-1.17,0-2.01-.39-2.9-1.33-2.38-2.53-7.57-11.99-5.96-45.78,21.24-11.25,39.67-28.54,52.21-49.06,11.89-19.47,17.51-40.55,15.02-56.4-2.28-14.52-11.13-23.94-24.29-25.84-1.76-.25-3.57-.38-5.37-.38-18.35,0-36.44,12.97-52.62,30.74,22.16-50.31,45.73-95.46,61.13-115.91l18.56-24.65h0Zm-461.45,287.99c.25-4.53,3.34-14.31,5.68-21.75l.62-1.97c6.23-19.79,43.54-109.51,66.37-143.22l3.04-4.49,.16,5.5c.76,25.72-14.99,66.86-26.97,95.69-8.94,16.98-19.58,34.44-29.24,47.93-11.21,15.67-17.27,20.73-19.66,22.3h0Zm212.48-69.8c4.59-11.37,10.62-23.13,17.31-33.55,12.12-18.87,22.79-27.46,27.58-27.46,.5,0,.86,.1,1.25,.35,1.12,.73,2.15,1.8,2.14,4.63-.03,5.91-4.62,15.34-12.28,25.23-7.38,9.52-16.98,18.65-25.06,23.81l-10.93,6.99h0Zm141.83,7.96c4.23-8.09,8.14-14.75,11.19-19.68,12.47-20.16,22.72-31.29,28.67-35.71-.86,4.23-3.34,11.19-8.82,20.15-5.51,9-15.14,21.84-31.04,35.24h0Z"/></g></g></g></svg>