<?xml version="1.0" encoding="UTF-8"?><svg id="Layer_2" xmlns="http://www.w3.org/2000/svg" viewBox="0 0 528 380.14"><defs><style>.cls-1{stroke:#42ef90;stroke-width:15px;}.cls-1,.cls-2{fill:none;stroke-linecap:round;stroke-miterlimit:10;}.cls-2{stroke:#121212;stroke-width:16px;}.cls-3{fill:#42ef90;}.cls-4{fill:#ebecf0;}.cls-5{fill:#121212;}</style></defs><g id="Layer_1-2"><ellipse class="cls-3" cx="131.5" cy="242.14" rx="120.5" ry="138"/><ellipse class="cls-3" cx="407.5" cy="242.14" rx="120.5" ry="138"/><path class="cls-1" d="M91.53,41.22c15.84-13.47,34.99-22.49,56.28-25.3,28.87-3.81,56.89,4.42,80.11,21.21"/><path class="cls-1" d="M359.07,48.08c17.99-10.42,38.44-15.87,59.9-14.83,29.08,1.41,55.18,14.51,75.03,35.19"/><g><ellipse class="cls-4" cx="120.5" cy="234.14" rx="112.5" ry="130"/><path class="cls-5" d="M120.5,112.14c57.62,0,104.5,54.73,104.5,122s-46.88,122-104.5,122S16,301.42,16,234.14,62.88,112.14,120.5,112.14m0-16C53.95,96.14,0,157.93,0,234.14s53.95,138,120.5,138,120.5-61.78,120.5-138S187.05,96.14,120.5,96.14h0Z"/></g><path class="cls-2" d="M80.53,34.22c15.84-13.47,34.99-22.49,56.28-25.3,28.87-3.81,56.89,4.42,80.11,21.21"/><path class="cls-2" d="M348.07,41.08c17.99-10.42,38.44-15.87,59.9-14.83,29.08,1.41,55.18,14.51,75.03,35.19"/><g><ellipse class="cls-4" cx="396.5" cy="234.14" rx="112.5" ry="130"/><path class="cls-5" d="M396.5,112.14c57.62,0,104.5,54.73,104.5,122s-46.88,122-104.5,122-104.5-54.73-104.5-122,46.88-122,104.5-122m0-16c-66.55,0-120.5,61.78-120.5,138s53.95,138,120.5,138,120.5-61.78,120.5-138-53.95-138-120.5-138h0Z"/></g><ellipse class="cls-5" cx="63.76" cy="254.14" rx="56.76" ry="65"/><ellipse class="cls-5" cx="346.76" cy="254.14" rx="56.76" ry="65"/></g></svg>